<?xml version="1.0" encoding="UTF-8"?>
<svg id="Layer_1" data-name="Layer 1" xmlns="http://www.w3.org/2000/svg" viewBox="0 0 256 256">
  <defs>
    <style>
      .cls-1 {
        fill: #fff;
      }

      .cls-2 {
        fill: #040504;
      }

      .cls-3 {
        fill: #f6d2b1;
      }

      .cls-4 {
        fill: #f5d3ad;
      }

      .cls-5 {
        fill: #53b0cb;
      }

      .cls-6 {
        fill: #d51a67;
      }

      .cls-7 {
        fill: #808285;
      }

      .cls-8 {
        fill: #ec008c;
      }

      .cls-9 {
        fill: #ee1e38;
      }

      .cls-10 {
        fill: #e46f90;
      }

      .cls-11 {
        fill: #58595b;
      }
    </style>
  </defs>
  <path class="cls-6" d="m111.219,134.683c2.731,1.084,10.174,3.913,17.015,4.823,2.467.328,4.225.323,6.029,0,.526-.094,1.68-.327,6.297-2.278,4.165-1.759,4.406-2.068,6.833-2.948,1.278-.463,3.362-1.209,6.029-1.742,4.105-.82,5.343-.287,8.441-.804,2.915-.486,5.876-1.114,8.441-3.349,2.478-2.16,3.513-4.956,4.153-4.689.395.165.06,1.253.536,3.483.192.9.612,2.44.938,2.412.327-.029.073-1.601.804-3.349.641-1.534,1.352-1.556,2.947-3.483,2.235-2.7,2.473-4.628,3.483-4.555.701.05,1.289,1.029,1.474,1.742.305,1.178-.361,2.142-.134,2.278.229.137,1.123-.718,2.01-2.01,1.727-2.517,2.261-4.994,2.412-5.761.753-3.834.155-6.803.402-6.833.3-.037.742,4.408,1.474,4.421.631.011,1.533-3.265,1.608-6.699.166-7.6-3.75-14.601-3.751-14.604.04-.922.094-2.319.134-4.019.205-6.281.35-10.736-.536-15.273-.528-2.705-1.29-4.572-2.814-8.307-2.29-5.614-4.166-10.604-8.173-15.943-1.454-1.938-3.456-4.603-6.632-7.168-2.855-2.305-4.282-3.458-5.225-3.885-1.296-.587-2.689-.983-3.148-2.211-.306-.819.059-1.327.201-2.412.326-2.483-.962-4.587-2.01-6.297-1.53-2.498-3.589-4.202-3.818-4.019-.178.141.908,1.292,1.474,3.55.235.936.541,2.228.067,3.684-.15.461-.543,1.668-1.675,2.278-.74.399-1.834.563-2.144.134-.232-.321.089-.817.268-1.34.58-1.687-.372-3.452-1.474-5.493-.416-.771-1.285-2.348-3.015-3.885-2.242-1.993-4.631-2.767-6.007-3.081-3.684-.844-7.229-.033-7.235.357-.003.235,1.281.132,3.126.893.988.408,3.664,1.511,4.645,4.019.922,2.358.051,5.205-.625,5.27-.355.034-.492-.715-1.25-1.786-1.319-1.863-3.103-2.704-4.377-3.305-1.644-.775-3.329-1.57-5.448-1.25-2.388.359-4.337,1.983-4.198,2.322.063.154.52-.046,1.429,0,.429.022,2.34.168,3.573,1.518.716.785,1.287,2.067.893,2.501-.395.435-1.63-.125-2.233-.357-4.328-1.663-9.968.614-14.202,2.322-1.713.691-3.348,1.501-6.074,3.126-8.228,4.907-13.779,9.635-15.095,10.808-5.603,4.995-9.509,9.748-9.892,11.879-.04.225-.16,1.076-.804,1.809-.696.791-1.505.875-2.546,1.34-.406.181-.927.456-2.881,2.144-3.331,2.877-4.996,4.316-6.23,6.096-1.964,2.834-2.524,5.333-2.345,5.426.161.083.946-1.747,2.68-2.211.354-.095.919-.178,1.005,0,.131.273-.96.954-1.675,1.608-.903.825-1.468,1.843-2.345,4.89-.594,2.067-2.239,7.786-1.407,8.106.601.231,2.31-2.42,2.286-2.44,0,0,0,0-.142.118,0,0,1.484-.733,1.965-.357.434.338-.178,1.399-.357,2.858-.233,1.903.514,2.492.715,4.287.4,3.587-2.053,5.969-1.429,6.431.502.371,2.37-.959,3.573-2.501,1.051-1.347,1.366-2.564,1.608-2.501.319.083-.143,2.231-.179,3.751-.034,1.436.275,3.977,5.538,10.182,5.162,6.085,6.627,5.717,10.004,10.718,1.244,1.842,2.951,4.714,3.573,5.761,2.672,4.496,2.722,5.031,4.109,6.699.46.553,2.447,2.893,5.761,5.091,1.376.913,2.621,1.563,3.573,2.01Z"/>
  <path class="cls-6" d="m179.057,49.651c2.435-2.582,5.919-5.417,10.54-7.145,2.528-.945,4.796-1.335,5.895-1.518,2.118-.354,4.626-.772,7.86-.357,2.891.371,4.983,1.231,6.52,1.876,2.003.84,4.315,1.809,6.699,3.93,3.096,2.754,4.469,5.811,5.091,7.235.304.697,1.726,4.05,1.876,8.753.075,2.356-.085,7.708-3.215,13.308-2.528,4.522-5.796,7.067-7.949,8.709-1.494,1.139-3.286,2.505-6.029,3.617-4.169,1.69-7.88,1.717-11.388,1.742-2.688.019-4.909-.199-6.431-.402"/>
  <path class="cls-6" d="m86.701,56.037c-2.363-1.052-5.488-2.784-8.575-5.627-3.602-3.318-5.467-6.596-5.895-7.369-2.428-4.381-3.047-8.277-3.215-9.512-.247-1.819-.647-6.18.938-11.388.619-2.035,2.444-7.763,7.905-12.326,1.297-1.084,3.987-3.284,8.173-4.421,4.123-1.12,7.502-.613,9.646-.268,1.704.274,5.487.922,9.512,3.483,5.23,3.328,7.677,7.854,9.111,10.584,1.148,2.188,2.658,5.681,3.349,10.316"/>
  <path class="cls-6" d="m97.376,119.053c-1.603-2.185-6.026-2.752-14.872-3.885-2.474-.317-4.909-.792-9.78-1.742-3.05-.595-4.659-.958-6.297-2.278-2.272-1.83-3.21-4.38-3.483-5.225-.711-2.196-.194-2.937-1.072-6.163-.548-2.012-.822-3.018-1.608-3.751-1.946-1.814-5.946-1.747-7.771.268-1.408,1.554-1.206,3.919-1.072,5.493.135,1.583.559,2.403.804,5.225.161,1.85.056,2.389-.268,2.814-.782,1.025-2.365.752-4.153.804,0,0-5.561.16-10.182,4.019-1.299,1.085-2.809,2.384-2.814,4.287-.003,1.026.345,2.674,1.608,3.349.156.084.805.408,1.608.268,1.326-.232,2.27-1.595,2.144-1.742-.181-.21-3.199,1.337-4.823,4.019-.485.8-1.64,3.014-1.072,5.627.465,2.139,2.059,4.432,3.349,4.287.883-.099,1.436-1.316,1.608-1.206.173.111-.666,1.168-.804,2.546-.215,2.156,1.405,3.92,1.742,4.287.305.332,1.487,1.552,3.349,2.01,1.822.448,3.514-.026,8.843-2.814,3.574-1.869,4.69-4.232,6.967-3.885.304.046.288.084,2.01.804,2.968,1.242,4.12,1.593,5.091,2.01,1.686.723,3.112,2.011,5.895,4.555,3.735,3.415,5.603,5.123,7.369,7.637,2.847,4.053,3.621,7.292,4.689,7.101.888-.159,1.142-2.539,1.206-3.082,1.43-12.131,16.739-28.891,11.79-35.638Z"/>
  <path class="cls-6" d="m163.865,132.063c.45,3.107,1.132,5.532,1.695,7.215.387,1.155.772,2.119.831,2.268,1.107,2.763,1.543,2.974,2.339,5.063.6,1.574,1.049,2.752,1.259,4.406.106.832.138,1.674.57,2.807.406,1.063.969,1.722,1.096,1.997,1.26,2.729,1.479,5.191,1.583,8.958.104,3.782.159,5.774-.028,8.71-.4,6.28-.599,9.42-.816,10.059-.181.534-.442,1.216-.113,1.743.866,1.387,5.218.735,8.293-1.173,2.308-1.431,3.472-3.307,4.364-4.743,1.086-1.749,2.536-4.084,2.06-6.858-.122-.712-.4-2.33-1.781-3.194-.873-.546-2.227-.815-3.218-.229-1.05.621-1.473,2.071-1.578,2.431-.232.794-.148,1.235-.518,1.48-.489.323-1.032-.183-1.879-.245-1.857-.136-3.388,1.998-3.46,1.918-.049-.055.858-.816,1.949-2.215,0,0,.15-.179.297-.359,4.178-5.081,5.923-8.781,5.923-8.781.647-1.372,2.561-5.549,2.41-11.15-.091-3.399-.903-5.863-1.57-7.886-2.038-6.185-5.304-10.146-6.436-11.445-2.076-2.382-4.229-4.141-6.095-5.419"/>
  <path class="cls-6" d="m96.883,119.052c-.812,1.897-.14,3.627-1.786,8.753-.475,1.478-.967,2.692-5.359,11.254-3.641,7.097-4.114,7.844-4.645,10.004-.511,2.079-.534,3.263-1.429,7.146-.747,3.241-1.451,5.537-1.608,6.074-2.067,7.096.414,19.645,1.25,23.759,2.774,13.636,3.613,20.558,6.431,27.332,0,0,.175.421,6.074,13.576,1.285-.85,3.338-1.994,6.074-2.68,1.083-.271,4.808-1.164,8.753-.179,7.099,1.773,9.976,8.395,11.611,7.503,1.068-.583-.531-3.2,0-8.217.285-2.694.824-2.676,3.751-11.254,1.406-4.119,1.757-5.516,2.501-5.538.955-.028,1.781,2.422,3.394,7.324,1.372,4.17,2.058,6.255,2.322,8.575.526,4.626-.396,7.326.536,7.681.884.337,2.042-1.965,4.466-3.93,3.715-3.011,8.028-3.302,9.289-3.394,3.64-.266,9.444.457,11.076,3.037.146.232.458.792.871.782.823-.021,1.323-2.288,1.876-4.153.892-3.01,1.178-2.466,3.148-7.436,1.816-4.58,2.897-8.385,3.818-11.656,1.507-5.354,3.142-11.162,4.287-19.159,1.466-10.241,1.247-17.913,1.183-19.739-.071-2.025.15-4.794-.625-8.307-.837-3.795-2.223-6.424-2.769-7.503-3.976-7.852-4.777-15.1-6.074-18.578-6.944-18.622-63.204-23.249-68.418-11.076Z"/>
  <path class="cls-6" d="m95.99,225.788c3.03-1.422,5.695-1.986,7.503-2.233,1.376-.188,3.265-.433,5.716-.089.602.084,2.763.417,5.359,1.608,4.01,1.839,6.303,4.46,8.575,7.056,2.863,3.273,3.28,4.869,3.394,5.359.154.661.68,3.063-.447,5.448-.252.533-1.387,2.761-6.342,4.734-4.394,1.749-8.1,1.827-12.237,1.876-3.215.038-7.6-.174-12.505-1.608-2.712-.793-4.473-1.635-5.806-3.305-.347-.434-1.553-2.038-1.786-4.377-.27-2.703.925-4.732,2.501-7.324,1.139-1.874,3.035-4.517,6.074-7.145Z"/>
  <path class="cls-6" d="m138.506,224.537c3.03-1.422,5.695-1.986,7.503-2.233,1.376-.188,3.265-.433,5.716-.089.602.084,2.763.417,5.359,1.608,4.01,1.839,6.303,4.46,8.575,7.056,2.863,3.273,3.28,4.869,3.394,5.359.154.661.68,3.063-.447,5.448-.252.533-1.387,2.761-6.342,4.734-4.394,1.749-8.1,1.827-12.237,1.876-3.215.038-7.6-.174-12.505-1.608-2.712-.793-4.473-1.635-5.806-3.305-.347-.434-1.553-2.038-1.786-4.377-.27-2.703.925-4.732,2.501-7.324,1.139-1.874,3.035-4.517,6.074-7.145Z"/>
  <path class="cls-7" d="m114.747,42.774c.574.941,7.672-4.355,11.969-1.786,1.195.714,1.949,1.903,4.109,2.501.707.196,2.607.722,3.394-.179.817-.935-.011-2.9-.715-3.93-.471-.689-1.258-1.504-2.68-2.144-4.144-1.865-9.537-.38-13.219,2.322-1.549,1.137-3.145,2.746-2.858,3.215Z"/>
  <path class="cls-7" d="m170.151,58.825c-.998.466-3.98-7.873-8.981-8.111-1.391-.066-2.676.507-4.806-.19-.697-.228-2.571-.842-2.728-2.027-.163-1.231,1.614-2.41,2.77-2.878.773-.313,1.88-.557,3.418-.303,4.484.739,8.154,4.96,9.726,9.249.661,1.804,1.1,4.027.601,4.26Z"/>
  <g>
    <path class="cls-1" d="m99.206,65.818c-1.379,5.222.118,10.564,2.68,14.112,1.417,1.962,3.007,3.165,3.573,3.573.888.64,3.71,2.672,7.324,2.858,5.554.286,9.571-3.966,10.718-5.18,2.688-2.845,3.615-6.163,5.359-12.683,2.327-8.697,3.499-13.346.893-16.792-.184-.244-2.068-2.663-5.18-3.215-1.946-.345-3.533.187-6.431,1.429-5.455,2.338-8.183,3.507-10.182,5.002-3.411,2.55-7.321,5.472-8.753,10.897Z"/>
    <path class="cls-11" d="m113.325,86.625c-.185,0-.37-.005-.556-.015-3.687-.189-6.524-2.233-7.457-2.905-.785-.564-2.299-1.787-3.63-3.629-2.301-3.187-4.224-8.623-2.719-14.323,1.455-5.509,5.38-8.443,8.844-11.032,2.024-1.513,4.766-2.688,10.228-5.03,3.047-1.305,4.63-1.793,6.58-1.448,3.181.564,5.125,3.031,5.336,3.311,2.732,3.614,1.384,8.655-.852,17.007-1.698,6.347-2.633,9.842-5.418,12.791-3.309,3.501-6.79,5.273-10.357,5.273Zm-14.12-20.808l.242.064c-1.46,5.531.406,10.808,2.641,13.902,1.29,1.786,2.756,2.97,3.516,3.516.904.651,3.651,2.63,7.191,2.812,3.619.179,7.149-1.531,10.523-5.102,2.59-2.741,3.497-5.837,5.3-12.577,2.377-8.886,3.411-13.303.936-16.577-.199-.264-2.032-2.589-5.025-3.12-1.91-.339-3.453.196-6.289,1.413-5.433,2.329-8.156,3.496-10.131,4.972-3.4,2.541-7.251,5.42-8.662,10.761l-.242-.064Z"/>
  </g>
  <g>
    <path class="cls-1" d="m171.701,89.634c-2.285,4.894-6.855,8.039-11.095,9.124-2.344.6-4.336.506-5.032.457-1.092-.077-4.561-.323-7.456-2.494-4.449-3.337-4.812-9.174-4.916-10.842-.243-3.906,1.17-7.048,4.005-13.174,3.782-8.17,5.858-12.492,10.066-13.47.298-.069,3.294-.721,6.038.847,1.716.98,2.594,2.406,4.025,5.216,2.693,5.289,4.04,7.934,4.618,10.362.988,4.143,2.119,8.89-.254,13.975Z"/>
    <path class="cls-11" d="m156.625,99.5c-.427,0-.788-.017-1.067-.036-1.146-.081-4.635-.328-7.589-2.543-3.014-2.261-4.701-5.971-5.016-11.027-.251-4.05,1.27-7.333,4.028-13.294,3.632-7.847,5.824-12.583,10.236-13.609.343-.079,3.422-.725,6.219.874,1.717.981,2.622,2.372,4.123,5.319,2.699,5.3,4.054,7.96,4.639,10.417,1.004,4.207,2.141,8.974-.271,14.139h0c-2.493,5.341-7.451,8.286-11.26,9.26-1.562.4-2.996.5-4.043.5Zm2.538-40.207c-.977,0-1.683.15-1.832.185-3.997.929-6.031,4.983-9.896,13.332-2.93,6.331-4.216,9.289-3.981,13.053.304,4.903,1.925,8.489,4.816,10.658,2.836,2.128,6.214,2.367,7.323,2.445.934.068,2.821.097,4.952-.449,3.697-.946,8.511-3.804,10.93-8.988h0c2.338-5.006,1.222-9.684.237-13.811-.571-2.399-1.917-5.042-4.598-10.307-1.401-2.75-2.245-4.151-3.926-5.111-1.41-.807-2.898-1.006-4.025-1.006Z"/>
  </g>
  <path class="cls-3" d="m113.675,87.433c-1.778-.579-5.352-1.46-9.646-.536-3.771.811-6.226,2.612-6.788,3.037-1.166.883-3.28,2.522-4.645,5.538-.406.896-1.6,3.63-1.072,7.145.43,2.862,1.776,4.741,2.858,6.252,2.393,3.341,5.21,5.063,7.103,6.194,2.177,1.301,5.188,3.099,9.51,3.453,2.061.169,4.869.398,7.681-1.072,3.587-1.875,5.03-5.388,5.938-4.956.513.244.195,1.432.314,2.991.243,3.173,2.11,5.42,3.394,6.967,3.341,4.023,8.141,5.023,12.326,5.895,5.067,1.056,9.164,1.91,13.398-.357,4.86-2.603,6.433-7.462,6.61-8.039,1.659-5.411-.756-10.007-1.786-11.969-3.322-6.322-9.232-8.784-11.076-9.468"/>
  <path class="cls-8" d="m114.655,86.67c3.762-3.321,9.267-2.322,13.722-1.513,0,0,11.233,2.039,18.986,11.157.954,1.122,2.019,2.585,1.88,4.349-.201,2.553-2.805,4.229-4.511,5.295-5.545,3.463-11.45,3.129-12.783,3.026-7.436-.574-12.238-4.729-13.722-6.051-2.525-2.25-7.175-6.392-6.391-11.346.413-2.611,2.159-4.333,2.82-4.917Z"/>
  <path class="cls-10" d="m110.416,120.364c1.168-1.834,8.754-.402,9.466,2.363.324,1.26-.798,2.727-.728,2.757.068.029.47-1.651,1.699-2.599,2.266-1.749,6.205-.131,6.715.079.451.185,4.826,1.983,4.612,4.411-.158,1.786-2.706,2.859-3.398,3.151-3.177,1.338-6.381.423-9.789-.551-2.454-.701-3.792-1.084-5.259-2.284,0,0-2.857-2.339-3.398-6.144-.105-.739-.044-.986.081-1.182Z"/>
  <path class="cls-9" d="m114.509,117.7c-1.098.011-4.601.047-4.927-.074-.01-.004-.053-.021-.083-.001-.117.077.118.633.299,1.051.501,1.153.752,1.73.822,1.801,1.008,1.015,2.979-1.005,5.458-.15.547.188,1.643.698,2.617,1.651.668.654.751,1,1.271,1.201,1.03.397,1.709-.576,3.066-.825,2.185-.402,4.576,1.355,5.757,2.777,1.267,1.523,1.245,2.78,2.094,2.852.945.08,2.127-1.378,1.869-2.251-.146-.493-.713-.674-1.196-.9-1.195-.56-1.943-1.574-3.439-3.602-2.932-3.973-2.742-8.9-3.963-8.93-.399-.01-.561.512-1.122,1.276-2.07,2.822-6.015,4.102-8.524,4.127Z"/>
  <path class="cls-4" d="m110.482,118.282c.197.198.369.455.378.467.825,1.132,1.034,2.257,1.115,2.665.412,2.067.815,4.169,1.856,5.577.876,1.184,1.982,1.61,4.153,2.546,1.425.614,3.39,1.461,6.029,1.34,1.308-.06,4.141-.19,6.029-2.144.069-.072.371-.478.726-.949,1.199-1.59,1.194-1.699,1.418-1.865,1.295-.962,4.698.247,4.957,1.876.098.616-.272,1.25-1.474,2.412-1.486,1.435-3.428,3.268-6.967,4.555-1.379.502-4.864,1.723-9.378,1.072-1.659-.239-4.306-.652-6.967-2.546-2.572-1.83-3.749-4.043-5.091-6.565-.265-.499-1.614-3.086-2.144-6.699-.365-2.485.018-3.002.268-3.215.977-.832,3.538-.087,5.091,1.474Z"/>
  <g>
    <ellipse class="cls-5" cx="157.072" cy="83.677" rx="13.13" ry="10.835" transform="translate(20.176 197.401) rotate(-67.763)"/>
    <ellipse class="cls-2" cx="157.745" cy="83.823" rx="9.35" ry="4.98" transform="translate(20.46 198.114) rotate(-67.763)"/>
    <circle class="cls-1" cx="160.318" cy="77.53" r="3.383"/>
    <circle class="cls-1" cx="154.746" cy="91.159" r="2.279"/>
  </g>
  <g>
    <ellipse class="cls-5" cx="114.074" cy="69.872" rx="13.13" ry="10.835" transform="translate(6.229 149.02) rotate(-67.763)"/>
    <ellipse class="cls-2" cx="114.747" cy="70.017" rx="9.35" ry="4.98" transform="translate(6.513 149.733) rotate(-67.763)"/>
    <circle class="cls-1" cx="117.32" cy="63.724" r="3.383"/>
    <circle class="cls-1" cx="111.748" cy="77.353" r="2.279"/>
  </g>
</svg>