<?xml version="1.0" encoding="UTF-8"?><svg id="Layer_1" xmlns="http://www.w3.org/2000/svg" viewBox="0 0 1536 2048"><defs><style>.cls-1,.cls-2{fill:#fff;}.cls-3{fill:#808184;}.cls-4{fill:#040504;}.cls-5{fill:#f4d2ac;}.cls-6{fill:#53afca;}.cls-7{fill:#ec1d38;}.cls-8{fill:#eb008b;}.cls-9{fill:#e36f8f;}.cls-2{stroke:#58595b;stroke-miterlimit:10;stroke-width:.5px;}.cls-10{fill:#f5d1b0;}.cls-11{fill:#d41a67;}</style></defs><path class="cls-11" d="m630.87,1068.702c21.259,8.437,79.206,30.461,132.459,37.547,19.205,2.556,32.89,2.515,46.934,0,4.096-.734,13.081-2.548,49.02-17.731,32.422-13.697,34.298-16.102,53.192-22.946,9.948-3.603,26.169-9.41,46.934-13.559,31.955-6.384,41.595-2.233,65.708-6.258,22.69-3.787,45.745-8.673,65.708-26.075,19.289-16.814,27.351-38.582,32.332-36.504,3.072,1.281.47,9.752,4.172,27.117,1.493,7.006,4.767,18.995,7.301,18.774,2.548-.222.567-12.46,6.258-26.075,4.991-11.941,10.522-12.111,22.945-27.117,17.399-21.017,19.252-36.025,27.118-35.461,5.457.391,10.037,8.007,11.473,13.559,2.371,9.169-2.808,16.673-1.043,17.731,1.783,1.068,8.745-5.591,15.645-15.645,13.446-19.593,17.601-38.879,18.774-44.848,5.861-29.845,1.21-52.958,3.129-53.192,2.334-.284,5.772,34.318,11.473,34.418,4.91.087,11.933-25.42,12.516-52.149,1.291-59.161-29.195-113.661-29.204-113.685.309-7.178.729-18.054,1.043-31.289,1.596-48.892,2.728-83.578-4.172-118.9-4.114-21.058-10.043-35.594-21.903-64.665-17.828-43.703-32.434-82.545-63.622-124.115-11.322-15.09-26.901-35.831-51.628-55.8-22.222-17.946-33.333-26.919-40.676-30.246-10.088-4.572-20.936-7.656-24.51-17.209-2.386-6.378.456-10.331,1.565-18.774,2.538-19.333-7.492-35.709-15.645-49.02-11.912-19.448-27.936-32.708-29.725-31.289-1.39,1.102,7.068,10.058,11.473,27.639,1.826,7.288,4.211,17.341.521,28.682-1.167,3.588-4.224,12.981-13.037,17.731-5.763,3.105-14.278,4.382-16.688,1.043-1.802-2.498.689-6.364,2.086-10.43,4.512-13.133-2.9-26.872-11.473-42.762-3.237-6-10.002-18.275-23.467-30.246-17.453-15.517-36.054-21.537-46.76-23.989-28.68-6.568-56.279-.256-56.321,2.781-.025,1.83,9.973,1.029,24.336,6.953,7.692,3.173,28.523,11.765,36.157,31.289,7.177,18.357.398,40.519-4.867,41.024-2.764.265-3.828-5.563-9.735-13.906-10.267-14.503-24.157-21.052-34.071-25.727-12.8-6.036-25.913-12.219-42.415-9.735-18.59,2.799-33.765,15.436-32.68,18.078.492,1.199,4.048-.357,11.125,0,3.337.168,18.213,1.305,27.813,11.82,5.576,6.108,10.02,16.089,6.953,19.469-3.075,3.389-12.685-.976-17.383-2.781-33.692-12.946-77.598,4.776-110.556,18.078-13.332,5.381-26.065,11.682-47.282,24.336-64.052,38.202-107.265,75.002-117.509,84.134-43.62,38.883-74.022,75.887-77.007,92.478-.315,1.752-1.243,8.379-6.258,14.08-5.419,6.161-11.717,6.813-19.817,10.43-3.157,1.41-7.214,3.55-22.424,16.688-25.931,22.398-38.896,33.598-48.499,47.456-15.288,22.063-19.649,41.519-18.252,42.241,1.251.646,7.361-13.599,20.86-17.209,2.759-.738,7.156-1.387,7.822,0,1.02,2.124-7.47,7.429-13.037,12.516-7.027,6.42-11.431,14.348-18.252,38.069-4.627,16.091-17.43,60.612-10.951,63.1,4.675,1.795,17.984-18.837,17.794-18.998,0,0-.005-.005-1.107.92,0,0,11.554-5.703,15.297-2.781,3.375,2.635-1.389,10.888-2.781,22.25-1.815,14.811,4.002,19.396,5.563,33.375,3.117,27.926-15.984,46.468-11.125,50.063,3.906,2.89,18.452-7.468,27.813-19.469,8.178-10.485,10.633-19.959,12.516-19.469,2.487.648-1.114,17.364-1.391,29.203-.261,11.178,2.137,30.964,43.11,79.267,40.184,47.374,51.59,44.508,77.876,83.439,9.682,14.339,22.971,36.7,27.813,44.848,20.802,35.003,21.192,39.162,31.985,52.149,3.578,4.306,19.05,22.518,44.848,39.633,10.712,7.107,20.402,12.165,27.813,15.645Z"/><path class="cls-11" d="m1158.966,406.757c18.953-20.099,46.078-42.173,82.048-55.626,19.681-7.36,37.336-10.392,45.891-11.82,16.491-2.754,36.009-6.013,61.188-2.781,22.504,2.889,38.791,9.584,50.758,14.602,15.594,6.538,33.594,14.086,52.149,30.594,24.098,21.44,34.792,45.237,39.633,56.321,2.37,5.427,13.437,31.525,14.602,68.141.583,18.341-.66,60.003-25.031,103.603-19.677,35.202-45.122,55.014-61.884,67.794-11.629,8.866-25.582,19.504-46.934,28.16-32.451,13.156-61.347,13.363-88.653,13.559-20.926.15-38.214-1.551-50.063-3.129"/><path class="cls-11" d="m438.509,462.362c-18.94-8.428-43.984-22.313-68.718-45.096-28.867-26.589-43.812-52.863-47.244-59.055-19.46-35.111-24.423-66.332-25.769-76.234-1.983-14.58-5.181-49.525,7.516-91.267,4.962-16.313,19.591-62.212,63.35-98.783,10.391-8.684,31.952-26.317,65.497-35.433,33.043-8.979,60.122-4.913,77.308-2.147,13.657,2.198,43.972,7.389,76.234,27.917,41.916,26.67,61.527,62.943,73.013,84.824,9.203,17.531,21.298,45.531,26.843,82.677"/><path class="cls-11" d="m523.104,947.028c-12.476-17.01-46.907-21.422-115.771-30.246-19.256-2.467-38.217-6.165-76.138-13.559-23.743-4.629-36.27-7.459-49.02-17.731-17.685-14.247-24.988-34.1-27.117-40.676-5.537-17.098-1.508-22.867-8.344-47.977-4.264-15.664-6.397-23.497-12.516-29.203-15.146-14.125-46.285-13.601-60.493,2.086-10.96,12.1-9.389,30.51-8.344,42.762,1.051,12.323,4.351,18.703,6.258,40.676,1.25,14.401.435,18.6-2.086,21.903-6.088,7.977-18.41,5.856-32.332,6.258-.001,0-43.291,1.249-79.267,31.289-10.113,8.445-21.864,18.559-21.903,33.375-.021,7.987,2.686,20.819,12.516,26.075,1.218.651,6.271,3.18,12.516,2.086,10.322-1.807,17.668-12.417,16.688-13.559-1.406-1.637-24.904,10.41-37.547,31.289-3.772,6.229-12.764,23.46-8.344,43.805,3.618,16.653,16.029,34.499,26.075,33.375,6.87-.768,11.182-10.247,12.516-9.387,1.343.866-5.187,9.095-6.258,19.817-1.677,16.782,10.935,30.517,13.559,33.375,2.374,2.585,11.578,12.082,26.075,15.645,14.183,3.485,27.357-.203,68.837-21.903,27.819-14.553,36.508-32.942,54.235-30.246,2.366.36,2.242.65,15.645,6.258,23.108,9.668,32.071,12.399,39.633,15.645,13.123,5.632,24.224,15.651,45.891,35.461,29.079,26.587,43.619,39.881,57.364,59.45,22.161,31.552,28.191,56.765,36.504,55.278,6.912-1.237,8.889-19.764,9.387-23.989,11.136-94.439,130.308-224.905,91.782-277.433Z"/><path class="cls-11" d="m1040.703,1048.307c3.504,24.189,8.809,43.064,13.199,56.165,3.014,8.994,6.01,16.498,6.473,17.653,8.62,21.505,12.012,23.149,18.211,39.415,4.668,12.25,8.164,21.422,9.804,34.302.825,6.476,1.071,13.03,4.438,21.85,3.158,8.273,7.546,13.404,8.533,15.542,9.812,21.247,11.516,40.414,12.321,69.735.808,29.44,1.234,44.95-.219,67.801-3.11,48.886-4.665,73.33-6.35,78.307-1.408,4.16-3.438,9.469-.878,13.57,6.74,10.796,40.617,5.724,64.559-9.129,17.964-11.144,27.032-25.745,33.972-36.92,8.456-13.615,19.744-31.791,16.04-53.391-.95-5.542-3.111-18.14-13.862-24.865-6.797-4.251-17.335-6.348-25.055-1.782-8.174,4.835-11.469,16.123-12.287,18.924-1.805,6.183-1.149,9.616-4.032,11.523-3.806,2.516-8.037-1.425-14.626-1.908-14.46-1.06-26.378,15.557-26.938,14.93-.379-.424,6.68-6.353,15.175-17.239,0,0,1.166-1.394,2.314-2.791,32.522-39.556,46.107-68.358,46.107-68.359,5.039-10.683,19.933-43.2,18.763-86.802-.71-26.46-7.03-45.642-12.219-61.392-15.865-48.15-41.293-78.981-50.106-89.094-16.158-18.543-32.922-32.234-47.45-42.189"/><path class="cls-11" d="m519.271,947.021c-6.325,14.765-1.089,28.236-13.906,68.141-3.695,11.505-7.527,20.959-41.719,87.61-28.343,55.248-32.024,61.061-36.157,77.876-3.978,16.187-4.154,25.4-11.125,55.626-5.819,25.232-11.298,43.103-12.516,47.282-16.093,55.243,3.22,152.93,9.735,184.955,21.593,106.153,28.13,160.037,50.063,212.768,0,.001,1.365,3.281,47.282,105.689,10.004-6.618,25.985-15.527,47.282-20.859,8.428-2.111,37.431-9.06,68.141-1.391,55.266,13.801,77.657,65.355,90.392,58.407,8.311-4.535-4.134-24.909,0-63.97,2.219-20.968,6.412-20.832,29.203-87.61,10.944-32.067,13.677-42.938,19.469-43.11,7.434-.221,13.864,18.855,26.422,57.016,10.682,32.462,16.023,48.693,18.078,66.751,4.098,36.015-3.086,57.029,4.172,59.798,6.883,2.626,15.895-15.299,34.766-30.594,28.917-23.438,62.493-25.705,72.313-26.422,28.336-2.07,73.519,3.559,86.22,23.641,1.14,1.802,3.563,6.165,6.779,6.084,6.407-.16,10.3-17.814,14.602-32.332,6.943-23.433,9.173-19.197,24.51-57.885,14.135-35.655,22.556-65.274,29.725-90.739,11.733-41.678,24.462-86.896,33.375-149.146,11.416-79.726,9.709-139.451,9.213-153.666-.55-15.762,1.166-37.321-4.867-64.665-6.519-29.545-17.303-50.011-21.555-58.407-30.95-61.122-37.185-117.552-47.282-144.627-54.06-144.964-492.023-180.984-532.616-86.22Z"/><path class="cls-11" d="m512.318,1777.93c23.587-11.067,44.334-15.459,58.407-17.383,10.715-1.465,25.413-3.367,44.501-.695,4.686.656,21.511,3.25,41.719,12.516,31.216,14.313,49.068,34.718,66.751,54.93,22.29,25.478,25.532,37.904,26.422,41.719,1.2,5.144,5.294,23.845-3.477,42.415-1.961,4.151-10.799,21.497-49.368,36.852-34.209,13.619-63.053,14.226-95.259,14.602-25.026.292-59.164-1.355-97.345-12.516-21.109-6.17-34.819-12.725-45.196-25.727-2.698-3.381-12.089-15.866-13.906-34.071-2.1-21.038,7.201-36.837,19.469-57.016,8.87-14.59,23.628-35.167,47.282-55.626Z"/><path class="cls-11" d="m843.291,1768.195c23.587-11.067,44.334-15.459,58.407-17.383,10.715-1.465,25.413-3.367,44.501-.695,4.686.656,21.511,3.25,41.719,12.516,31.216,14.313,49.068,34.718,66.751,54.93,22.29,25.478,25.532,37.904,26.422,41.719,1.2,5.144,5.294,23.845-3.477,42.415-1.961,4.151-10.799,21.497-49.368,36.852-34.209,13.619-63.053,14.226-95.259,14.602-25.026.292-59.164-1.355-97.345-12.516-21.109-6.17-34.819-12.725-45.196-25.727-2.698-3.381-12.089-15.866-13.906-34.071-2.1-21.038,7.201-36.837,19.469-57.016,8.87-14.59,23.628-35.167,47.282-55.626Z"/><path class="cls-3" d="m658.335,353.217c4.465,7.324,59.725-33.905,93.173-13.906,9.302,5.562,15.169,14.813,31.985,19.469,5.503,1.524,20.298,5.62,26.422-1.391,6.359-7.279-.085-22.577-5.563-30.594-3.663-5.361-9.79-11.705-20.86-16.688-32.258-14.519-74.241-2.96-102.907,18.078-12.059,8.85-24.481,21.373-22.25,25.032Z"/><path class="cls-3" d="m1089.637,478.173c-7.773,3.63-30.987-61.29-69.913-63.141-10.826-.515-20.832,3.945-37.415-1.482-5.427-1.776-20.017-6.551-21.239-15.779-1.269-9.582,12.564-18.759,21.563-22.405,6.018-2.439,14.632-4.333,26.609-2.357,34.903,5.757,63.476,38.616,75.713,72.003,5.147,14.044,8.564,31.349,4.682,33.162Z"/><path class="cls-2" d="m537.349,532.61c-10.735,40.653.917,82.24,20.86,109.861,11.028,15.274,23.409,24.641,27.813,27.813,6.913,4.979,28.881,20.804,57.016,22.25,43.237,2.223,74.505-30.873,83.438-40.329,20.922-22.145,28.139-47.977,41.719-98.736,18.114-67.705,27.236-103.896,6.953-130.72-1.435-1.898-16.103-20.729-40.329-25.032-15.145-2.69-27.507,1.457-50.063,11.125-42.467,18.202-63.7,27.303-79.267,38.938-26.555,19.848-56.989,42.596-68.141,84.829Z"/><path class="cls-2" d="m1101.709,718.009c-17.785,38.1-53.364,62.582-86.368,71.029-18.25,4.671-33.758,3.938-39.172,3.554-8.498-.602-35.505-2.514-58.042-19.418-34.635-25.978-37.46-71.42-38.267-84.404-1.89-30.407,9.106-54.869,31.177-102.553,29.439-63.603,45.606-97.244,78.361-104.86,2.318-.539,25.642-5.612,47.005,6.596,13.356,7.632,20.195,18.732,31.331,40.602,20.964,41.174,31.446,61.76,35.953,80.664,7.688,32.249,16.5,69.209-1.977,108.79Z"/><path class="cls-10" d="m649.991,700.878c-13.842-4.507-41.662-11.364-75.095-4.172-29.359,6.316-48.471,20.331-52.844,23.641-9.08,6.871-25.53,19.633-36.157,43.11-3.157,6.974-12.454,28.259-8.344,55.626,3.346,22.279,13.823,36.907,22.25,48.672,18.63,26.01,40.559,39.414,55.297,48.218,16.95,10.126,40.384,24.124,74.033,26.877,16.046,1.312,37.901,3.1,59.798-8.344,27.921-14.593,39.158-41.947,46.227-38.582,3.992,1.9,1.517,11.151,2.446,23.285,1.891,24.698,16.423,42.195,26.422,54.235,26.009,31.316,63.376,39.102,95.954,45.891,39.446,8.22,71.342,14.867,104.298-2.781,37.836-20.261,50.078-58.091,51.454-62.579,12.914-42.125-5.883-77.901-13.906-93.173-25.857-49.215-71.865-68.381-86.22-73.704"/><path class="cls-8" d="m657.62,694.936c29.286-25.853,72.138-18.074,106.826-11.777.001,0,87.443,15.874,147.8,86.856,7.426,8.733,15.716,20.123,14.634,33.859-1.567,19.878-21.837,32.924-35.121,41.22-43.166,26.959-89.133,24.356-99.509,23.554-57.885-4.47-95.267-36.812-106.826-47.109-19.66-17.514-55.854-49.758-49.754-88.328,3.215-20.327,16.803-33.732,21.95-38.276Z"/><path class="cls-9" d="m624.616,957.24c9.095-14.274,68.151-3.127,73.689,18.397,2.524,9.81-6.21,21.229-5.668,21.463.527.228,3.66-12.853,13.226-20.236,17.642-13.618,48.305-1.018,52.275.613,3.511,1.443,37.571,15.438,35.9,34.34-1.229,13.903-21.063,22.258-26.452,24.529-24.73,10.418-49.674,3.29-76.208-4.293-19.105-5.46-29.523-8.437-40.938-17.783-.001,0-22.241-18.211-26.452-47.831-.817-5.75-.339-7.678.63-9.198Z"/><path class="cls-7" d="m656.485,936.496c-8.55.088-35.818.368-38.356-.574-.077-.029-.411-.162-.643-.01-.915.603.916,4.93,2.328,8.179,3.903,8.979,5.854,13.468,6.403,14.02,7.85,7.899,23.192-7.822,42.491-1.168,4.256,1.467,12.79,5.431,20.372,12.852,5.203,5.091,5.848,7.788,9.895,9.347,8.017,3.088,13.301-4.481,23.865-6.426,17.013-3.132,35.619,10.551,44.819,21.615,9.862,11.86,9.689,21.638,16.298,22.199,7.356.624,16.56-10.728,14.552-17.525-1.134-3.838-5.554-5.247-9.313-7.01-9.301-4.363-15.126-12.256-26.775-28.041-22.827-30.931-21.349-69.286-30.85-69.518-3.102-.076-4.37,3.987-8.731,9.931-16.116,21.965-46.825,31.929-66.356,32.13Z"/><path class="cls-5" d="m625.134,941.03c1.532,1.54,2.874,3.542,2.941,3.633,6.424,8.814,8.049,17.57,8.683,20.748,3.21,16.089,6.343,32.451,14.451,43.413,6.816,9.215,15.431,12.531,32.332,19.817,11.09,4.781,26.386,11.374,46.934,10.43,10.179-.468,32.239-1.482,46.934-16.688.541-.56,2.886-3.72,5.65-7.386,9.332-12.379,9.297-13.223,11.038-14.516,10.078-7.488,36.571,1.924,38.59,14.602.764,4.799-2.115,9.735-11.473,18.774-11.566,11.172-26.687,25.438-54.235,35.461-10.732,3.905-37.865,13.412-73.009,8.344-12.911-1.862-33.522-5.075-54.235-19.817-20.02-14.249-29.188-31.476-39.633-51.106-2.067-3.884-12.562-24.022-16.688-52.149-2.838-19.345.139-23.373,2.086-25.032,7.602-6.473,27.544-.681,39.633,11.473Z"/><ellipse class="cls-6" cx="987.821" cy="671.641" rx="102.212" ry="84.349" transform="translate(-7.694 1331.824) rotate(-67.763)"/><ellipse class="cls-4" cx="993.061" cy="672.772" rx="72.785" ry="38.764" transform="translate(-5.484 1337.378) rotate(-67.763)"/><circle class="cls-1" cx="1013.09" cy="623.783" r="26.335"/><circle class="cls-1" cx="969.713" cy="729.881" r="17.745"/><ellipse class="cls-6" cx="653.094" cy="564.167" rx="102.212" ry="84.349" transform="translate(-116.268 955.189) rotate(-67.763)"/><ellipse class="cls-4" cx="658.334" cy="565.298" rx="72.785" ry="38.764" transform="translate(-114.057 960.743) rotate(-67.763)"/><circle class="cls-1" cx="678.363" cy="516.309" r="26.335"/><circle class="cls-1" cx="634.986" cy="622.407" r="17.745"/></svg>